<svg xmlns="http://www.w3.org/2000/svg" viewBox="0 0 180 53.333332" height="45" width="152"><defs><clipPath id="a"><path d="M601.4 60.3h652.4V257H601.4z"/></clipPath></defs><path d="M173.3 0c3.7 0 6.7 3 6.7 6.7v40c0 3.6-3 6.6-6.7 6.6H6.7c-3.7 0-6.7-3-6.7-6.6v-40C0 3 3 0 6.7 0h166.6" fill="#100f0d"/><path d="M15.2 43.8c-.5 0-1 0-1.2-.4V43c.3.3.7.4 1.2.4.4 0 1 0 1.5-.4l19.3-11h.2L16.7 43.5c-.6.3-1 .4-1.5.4M14 43.3c-.5-.4-.7-1-.7-2 0 .7.2 1.4.6 1.8v.2M36.2 32.3H36l6.7-4c.8-.4 1.3-1 1.4-1.6 0 .7-.4 1.4-1.3 2l-6.5 3.6" fill="#100f0d"/><path d="M63.4 46c-2.6 0-7.2-9-9.7-12.7C53 32.3 52 32 51 32H28.7c-1 0-2 .4-2.5 1.2-2.7 3.6-8 13-10.7 13-6.5 0-5.6-5.4-5.6-12 0-6.4 7.3-27 13.8-27h31.8C61.8 7.3 69 29 69 35.3c0 6.6 1 11-5.6 11" fill="#f8a70e"/><path d="M38.2 23.6c0-.3-.2-.5-.5-.5h-3v-3s-.2-.3-.4-.3h-2c-.3 0-.5.2-.5.4v3h-3c-.2 0-.4.3-.4.6v2c0 .2.2.4.5.4h2.8v3c0 .2.2.4.5.4h2c.2 0 .5-.2.5-.4v-3h3c.2 0 .4-.2.4-.5v-2" fill="#2e2d2d"/><path d="M37.2 22.6c0-.3-.2-.5-.5-.5h-3v-3c0-.2-.2-.4-.4-.4h-2c-.3 0-.5.2-.5.5v3h-3c-.2 0-.4.3-.4.6v2c0 .2.2.4.5.4h2.8v3c0 .2.2.4.5.4h2c.2 0 .4-.2.4-.5v-3h3c.3 0 .5-.2.5-.5v-2" fill="#fff"/><path d="M52 13.5c-1 0-1.7.7-1.7 1.5 0 1 .7 1.6 1.6 1.6.7 0 1.4-.7 1.4-1.6 0-.8-.7-1.5-1.5-1.5M55.4 10.3c-.8 0-1.5.7-1.5 1.5 0 1 .6 1.6 1.4 1.6 1 0 1.6-.7 1.6-1.6 0-.8-.7-1.5-1.6-1.5" fill="#2e2d2d"/><path d="M50.8 12.5c-.8 0-1.5.7-1.5 1.5 0 1 .7 1.6 1.5 1.6 1 0 1.6-.7 1.6-1.6 0-.8-.7-1.5-1.6-1.5M54.4 9.3c-1 0-1.6.7-1.6 1.5 0 1 .7 1.5 1.6 1.5.8 0 1.5-.6 1.5-1.5 0-.8-.8-1.5-1.6-1.5" fill="#fff"/><path d="M55.4 16.7c-.8 0-1.5.7-1.5 1.5 0 1 .6 1.6 1.4 1.6 1 0 1.6-.7 1.6-1.6 0-.8-.7-1.5-1.6-1.5M59 13.5c-.8 0-1.5.7-1.5 1.5 0 1 .7 1.6 1.6 1.6 1 0 1.6-.7 1.6-1.6 0-.8-.7-1.5-1.5-1.5" fill="#2e2d2d"/><path d="M54.4 15.7c-1 0-1.6.7-1.6 1.5 0 1 .7 1.6 1.6 1.6.8 0 1.5-.7 1.5-1.6 0-.8-.8-1.5-1.6-1.5M58 12.5c-1 0-1.5.7-1.5 1.5 0 1 .6 1.6 1.5 1.6 1 0 1.5-.7 1.5-1.6 0-.8-.6-1.5-1.5-1.5" fill="#fff"/><path d="M25.6 10.4c-2.4 0-4.4 2-4.4 4.4 0 2.4 2 4.4 4.4 4.4 2.4 0 4.3-2 4.3-4.4 0-2.4-2-4.4-4.4-4.4" fill="#2e2d2d"/><path d="M24.6 9.4c-2.4 0-4.4 2-4.4 4.4 0 2.4 2 4.3 4.4 4.3C27 18 29 16.3 29 14c0-2.4-2-4.4-4.4-4.4" fill="#fff"/><path d="M49 20.6c-2.3 0-4.3 2-4.3 4.4 0 2.4 2 4.3 4.4 4.3 2.5 0 4.4-2 4.4-4.3 0-2.4-2-4.4-4.3-4.4" fill="#2e2d2d"/><path d="M48 19.6c-2.4 0-4.3 2-4.3 4.3s2 4.3 4.4 4.3c2.5 0 4.4-2 4.4-4.4 0-2.5-2-4.4-4.3-4.4M82.3 11.6h2.2l-1-3.2zm3 2.6l-.6-1.7H82l-.6 1.7h-1.2l2.5-7H84l2.5 7h-1.2M88 14.2l-2-5h1.3l1.4 4 1.3-4h1.2l-2 5h-1M93.3 13.5h.6c0-.2.3-.3.5-.4v-1h-1c-.6 0-1 .3-1 .8l.3.6h.5zm1.4.7v-.5l-1 .5-.7.2c-.5 0-1-.2-1.2-.4-.3-.3-.4-.7-.4-1 0-.6.2-1 .5-1.3.3-.3.8-.4 1.4-.4h1V11 10h-1c-.4 0-1 0-1.7.3v-1c.3 0 .6 0 1-.2h1c.7 0 1.2.2 1.5.4.3.3.5.7.5 1.3v3.5h-1M96.8 14.2v-5H98v5zm.6-6H97c-.3-.2-.3-.3-.3-.5s0-.4.2-.5l.4-.2c.2 0 .4 0 .5.2v1h-.6M101.2 14.2h-.8c-.4 0-.7 0-1-.2l-.2-1V7h1.2v6.3h.8v1M103.5 13.5h.6l.7-.4v-1h-1c-.6 0-1 .3-1 .8l.3.6h.5zm1.4.7l-.2-.5-.8.5-.8.2c-.5 0-1-.2-1-.4-.4-.3-.6-.7-.6-1 0-.6.2-1 .6-1.3.3-.3.8-.4 1.4-.4h1V11 10h-1c-.4 0-1 0-1.6.3v-1l1-.2h1c.6 0 1 .2 1.4.4.3.3.5.7.5 1.3v3.5h-1M109.3 10c-.4 0-.8 0-1 .3V13c.2.3.6.4 1 .4.5 0 .8 0 1-.4.2-.3.3-.7.3-1.3 0-.6 0-1-.3-1.3-.2-.3-.5-.4-1-.4zm-2.3 4.2V7h1.2v2.6c.4-.4 1-.6 1.5-.6.6 0 1 .3 1.5.7.4.5.6 1 .6 2 0 .5 0 1-.3 1.3-.2.4-.4.8-.7 1-.3.2-.7.3-1.2.3h-.8l-.7-.6v.5h-1M114.7 14.2h-.8c-.5 0-.8 0-1-.2-.2-.3-.3-.6-.3-1V7h1.2v6.3h.7v1M117.6 10c-.4 0-.6 0-1 .2l-.2 1h2.2c0-.5 0-.8-.3-1-.2-.2-.4-.3-.7-.3zm-1.2 2c0 .5 0 1 .4 1 .2.3.6.4 1.2.4.4 0 1 0 1.5-.2v.8l-.8.3h-1c-.8 0-1.4 0-2-.6-.3-.4-.5-1-.5-2 0-.8.2-1.5.6-2 .4-.4 1-.7 1.8-.7.6 0 1 .2 1.5.6.4.3.6.8.6 1.5v1h-3.2M124.4 13.5h.6l.6-.4v-1h-1c-.5 0-1 .3-1 .8l.3.6h.4zm1.4.7v-.5l-1 .5-.7.2c-.4 0-.8-.2-1-.4-.3-.3-.5-.7-.5-1 0-.6.2-1 .6-1.3.4-.3 1-.4 1.5-.4h1V11 10h-.8c-.6 0-1.2 0-1.8.3v-1l.8-.2h1c.7 0 1.2.2 1.5.4.3.3.5.7.5 1.3v3.5h-1M130.8 14c-.3.2-.7.3-1 .3-.6 0-1 0-1.3-.4-.2-.3-.3-.7-.3-1.2V10h-1v-.7h1l.2-1.5h1v1.4h1.4v1h-1.5v2.6c0 .2 0 .3.2.4l.5.2h.8v.7" fill="#fff"/><g clip-path="url(#a)" fill-rule="evenodd" transform="matrix(.13333 0 0 -.13333 0 53.333)"><path d="M1006 103.2c-37.8-28-92.7-43-140-43-66.4 0-126 24.6-171.3 65.4-3.5 3.2-.4 7.6 4 5 48.7-28.2 109-45.3 171.2-45.3 42 0 88 8.7 130.6 26.7 6.4 2.7 11.8-4.2 5.5-8.8" fill="#f9a70d"/><path d="M1022 121.2c-5 6.2-32 3-44.4 1.4-3.7-.4-4.2 2.8-1 5.2 21.8 15.2 57.3 10.8 61.5 5.7 4.2-5-1-40.8-21.3-57.8-3.2-2.6-6-1.2-4.8 2.2 4.5 11.4 14.8 37 10 43.2" fill="#f9a70d"/><path d="M978.5 235.4v14.8c0 2.3 1.7 3.8 3.8 3.8h66.3c2.2 0 4-1.5 4-3.7v-12.7c-.2-2.2-2-5-5-9.4l-34.5-49c12.8.3 26.3-1.7 38-8.2 2.6-1.4 3.3-3.6 3.5-5.8v-15.8c0-2-2.4-4.6-5-3.3-20.4 10.8-47.5 12-70 0-2.4-1.3-4.8 1.2-4.8 3.4v15c0 2.4 0 6.5 2.5 10.2l39.8 57h-34.7c-2 0-3.8 1.6-3.8 3.8M736.4 143h-20.2c-2 0-3.4 1.5-3.6 3.4V250c0 2 1.8 3.7 4 3.7h18.7c2 0 3.6-1.6 3.7-3.5v-13.5h.4c5 13 14 19.2 26.5 19.2 12.6 0 20.5-6.2 26-19.3 5 13 16.2 19.2 28 19.2 8.5 0 17.7-3.6 23.4-11.4 6.4-8.8 5-21.4 5-32.5v-65.3c0-2-1.7-3.8-3.8-3.8h-20.2c-2 0-3.6 1.7-3.6 3.7v55c0 4.3.4 15.2-.6 19.3-1.5 7-6 9-12 9-4.8 0-9.8-3.3-12-8.5-2-5.3-1.8-14-1.8-20v-54.8c0-2-1.7-3.8-4-3.8h-20c-2 0-3.7 1.7-3.7 3.7v55c0 11.5 2 28.5-12.4 28.5-14.6 0-14-16.6-14-28.6v-55c0-2-1.7-3.7-4-3.7M1109.8 234.8c-15 0-15.8-20.3-15.8-33 0-12.6-.2-39.7 15.6-39.7 15.6 0 16.4 22 16.4 35.2 0 8.8-.4 19.2-3 27.5-2.3 7.2-6.8 10-13.2 10zm-.2 21c30 0 46.2-25.6 46.2-58.3 0-31.7-18-56.7-46.2-56.7-29.4 0-45.4 25.7-45.4 57.8 0 32.2 16.2 57.3 45.4 57.3M1194.6 143h-20c-2 0-3.7 1.7-3.7 3.7v103.6c0 2 1.7 3.4 3.7 3.4h18.8c1.7 0 3.2-1.3 3.6-3V235h.4c5.7 14 13.6 21 27.6 21 9 0 18-3.4 23.5-12.3 5.3-8.3 5.3-22.2 5.3-32.3v-65.2c-.2-1.8-2-3.3-4-3.3h-20c-2 0-3.5 1.4-3.7 3.2v56.3c0 11.3 1.4 28-12.5 28-5 0-9.5-3.4-11.7-8.4-2.8-6.2-3.2-12.5-3.2-19.5v-55.8c0-2-1.8-3.8-4-3.8M946 143.2c-1.4-1.2-3.3-1.3-4.8-.5-6.7 5.6-8 8.2-11.6 13.5-11-11.3-19-14.7-33.3-14.7-17 0-30.2 10.5-30.2 31.5 0 16.4 9 27.5 21.6 33 11 4.8 26.3 5.7 38 7v2.6c0 4.8.4 10.5-2.5 14.6-2.3 3.8-7 5.3-11.2 5.3-7.7 0-14.5-4-16.2-12-.4-2-1.7-3.8-3.5-3.8l-19.5 2c-1.7.4-3.5 1.8-3 4.3 4.5 23.7 26 31 45 31 10 0 22.8-2.7 30.6-10 10-9.3 9-21.6 9-35v-31.4c0-9.4 4-13.6 7.6-18.7 1.2-2 1.5-4 0-5.4-4.2-3.5-11.6-9.8-15.6-13.4zm-20.4 49.2c0-7.8.2-14.4-3.8-21.4-3.2-5.7-8.3-9.2-14-9.2-7.7 0-12.2 6-12.2 14.7 0 17.2 15.4 20.3 30 20.3v-4.4M681.3 143.2c-1.4-1.2-3.3-1.3-4.8-.5-6.7 5.6-8 8.2-11.6 13.5-11.2-11.3-19-14.7-33.4-14.7-17 0-30.2 10.5-30.2 31.5 0 16.4 9 27.5 21.5 33 11 4.8 26.2 5.7 38 7v2.6c0 4.8.3 10.5-2.6 14.6-2.4 3.8-7 5.3-11.3 5.3-7.6 0-14.4-4-16-12-.5-2-1.8-3.8-3.6-3.8l-19.6 2c-1.7.4-3.5 1.8-3 4.3 4.5 23.7 26 31 45 31 10 0 22.8-2.7 30.6-10 9.8-9.3 8.8-21.6 8.8-35v-31.4c0-9.4 4-13.6 7.7-18.7 1-2 1.4-4-.2-5.4l-15.5-13.4zM661 192.4c0-7.8 0-14.4-4-21.4-3-5.7-8.2-9.2-14-9.2-7.6 0-12 6-12 14.7 0 17.2 15.3 20.3 30 20.3v-4.4" fill="#fff"/></g></svg>
