<svg xmlns="http://www.w3.org/2000/svg" width="135" height="40"><path fill="#A6A6A6" d="M130.2 40H4.7C2 40 0 38 0 35.3V4.7C0 2 2 0 4.7 0h125.5c2.6 0 4.8 2 4.8 4.7v30.6c0 2.6-2.2 4.7-4.8 4.7z"/><path d="M134 35.3c0 2-1.7 3.8-3.8 3.8H4.7c-2 0-3.8-1.6-3.8-3.7V4.7C1 2.7 2.5 1 4.6 1h125.5c2 0 3.8 1.6 3.8 3.7v30.6z"/><g fill="#FFF"><path d="M30 19.8c0-3.2 2.8-4.8 3-5-1.6-2-4-2.4-4.8-2.4-2-.2-4 1.2-5 1.2s-2.4-1.2-4-1.2c-2.2 0-4.2 1.3-5.3 3.2-2.4 4-.7 9.7 1.5 13 1 1.5 2.3 3.2 4 3 1.6 0 2.2-1 4.2-1s2.5 1 4.2 1c1.6 0 2.7-1.5 3.8-3 1.2-1.8 1.7-3.6 1.7-3.7 0 0-3.3-1.4-3.4-5.2zM27 10.3c.8-1 1.4-2.6 1.2-4-1.2 0-2.8.8-3.7 2-.8.8-1.5 2.3-1.4 3.8 1.6.2 3-.6 4-1.7z"/></g><g fill="#FFF"><path d="M53.6 31.5h-2.2l-1.3-4H46l-1.2 4h-2.2l4.3-13.3h2.6l4.3 13.3zM49.8 26l-1.2-3.5L48 20l-.7 2.5-1 3.5h3.5zM64.7 26.6c0 1.6-.5 3-1.4 4-.8.7-1.7 1-3 1-1.2 0-2-.3-2.6-1.2v5h-2.2V25v-3h1.8v1.4h.2c.7-1 1.7-1.7 3.2-1.7 1 0 2 .5 2.8 1.4.8 1 1.2 2 1.2 3.6zm-2.2 0c0-1-.2-1.6-.6-2.2-.6-.7-1.2-1-2-1-.5 0-1 .2-1.4.5-.5.3-.7.7-1 1.3v2.3c0 .7.2 1.2.7 1.7s1 .7 1.6.7c.7 0 1.4-.3 1.8-1 .5-.5.7-1.3.7-2.3zM75.7 26.6c0 1.6-.4 3-1.3 4-.8.7-1.8 1-3 1s-2-.3-2.7-1.2v5h-2.2V25v-3h1.8l.2 1.4c.7-1 1.8-1.7 3.2-1.7 1.2 0 2 .5 3 1.4.6 1 1 2 1 3.6zm-2.2 0c0-1-.2-1.6-.6-2.2-.6-.7-1.2-1-2-1-.5 0-1 .2-1.4.5-.4.3-.7.7-.8 1.3v2.3c0 .7 0 1.2.5 1.7.4.5 1 .7 1.7.7.8 0 1.4-.3 2-1 .3-.5.5-1.3.5-2.3zM88 27.8c0 1-.4 2-1 2.7-1 .8-2.2 1.2-3.8 1.2-1.4 0-2.5-.3-3.4-.8l.5-2c1 .7 2 1 3 1s1.5-.2 2-.6c.4-.4.6-.8.6-1.5 0-.6-.3-1-.6-1.4-.4-.4-1-.7-2-1-2.2-1-3.4-2.2-3.4-4 0-1 .4-2 1.2-2.6 1-.7 2-1 3.3-1 1.2 0 2.2.2 3 .6l-.5 1.8c-.8-.4-1.6-.6-2.6-.6-.7 0-1.3 0-1.7.5-.4.3-.5.7-.5 1.2s.2 1 .6 1.3c.3.3 1 .7 2 1 1 .5 2 1 2.4 1.7.6.6.8 1.4.8 2.3zM95 23.5h-2.3v4.7c0 1.2.5 1.7 1.3 1.7.4 0 .7 0 1-.2v1.7l-1.7.2c-.8 0-1.5-.3-2-.8-.4-.6-.7-1.4-.7-2.7v-4.8h-1.4V22h1.4v-2l2-.5V22h2.5v1.5zM105.7 26.6c0 1.5-.4 2.7-1.3 3.7-1 1-2 1.4-3.5 1.4s-2.6-.4-3.5-1.4-1.2-2-1.2-3.5.4-2.7 1.3-3.7c.8-.8 2-1.3 3.5-1.3s2.6.5 3.5 1.4c.8 1 1.2 2.2 1.2 3.6zm-2.2 0c0-.8-.2-1.5-.6-2.2-.5-.7-1.2-1-2-1-1 0-1.5.3-2 1-.3.7-.5 1.4-.5 2.3 0 1 .2 1.7.5 2.3.5.8 1 1.2 2 1.2.8 0 1.4-.4 2-1.2.3-.7.5-1.4.5-2.3zM112.6 23.8h-.7c-.8 0-1.4.2-1.8.8-.3.5-.5 1-.5 2v5h-2.2v-6.7-3h1.8v1.7h.2c.2-.6.6-1 1-1.5.5-.3 1-.5 1.6-.5h.6v2zM122.2 26.3v1h-6.5c0 1 .3 1.6 1 2 .4.5 1 .8 2 .8s1.8 0 2.6-.4l.3 1.5c-1 .5-2 .7-3.2.7-1.5 0-2.6-.5-3.5-1.3-1-1-1.4-2-1.4-3.6 0-1.4.4-2.6 1.2-3.6.8-1 2-1.5 3.4-1.5s2.4.5 3 1.5c.7.8 1 2 1 3zm-2-.6c0-.6-.2-1.2-.5-1.6-.4-.5-1-.8-1.7-.8s-1.3.3-1.7.8c-.3.5-.6 1-.6 1.7h4.4z"/></g><g fill="#FFF"><path d="M49 10c0 1.2-.3 2-1 2.7-.7.5-1.6.8-2.8.8h-1.5V7l1.8-.2c1 0 2 .3 2.6.8.7.6 1 1.4 1 2.4zm-1 0c0-.7-.3-1.3-.7-1.7-.4-.4-1-.6-1.7-.6h-1v5h.8c.8 0 1.5-.3 2-.7s.5-1 .5-2zM55 11c0 .8-.3 1.4-.7 1.8-.4.5-1 .7-1.7.7s-1.3-.2-1.7-.6c-.5-.6-.7-1.2-.7-2 0-.6.2-1.2.6-1.7s1-.7 1.6-.7c.7 0 1.3.3 1.7.7.4.5.6 1 .6 1.7zm-1.2 0c0-.4 0-.7-.3-1-.2-.4-.5-.6-1-.6-.3 0-.6.2-1 .6v2.2c.4.4.7.6 1 .6.5 0 .8-.2 1-.6.2-.3.3-.7.3-1zM62.8 8.7l-1.5 4.7h-1l-.6-2c0-.5-.3-1-.4-1.5 0 .4-.2 1-.4 1.4l-.7 2h-1L56 8.7h1l.5 2.3.4 1.5c0-.4 0-1 .3-1.5l.6-2.3h.8l.6 2.2.4 1.5c0-.5.2-1 .4-1.6l.5-2.3h1zM68.2 13.4h-1v-2.7c0-.8-.4-1.2-1-1.2-.3 0-.6 0-.8.3-.2.3-.2.5-.2.8v2.8h-1V10 8.8h.8v.8l.6-.6c.3-.3.6-.4 1-.4s.8.2 1 .4c.4.4.6 1 .6 1.6v2.8zM71 13.4h-1V6.6h1v6.8zM77.3 11c0 .8-.2 1.4-.7 1.8-.4.5-1 .7-1.7.7-.8 0-1.3-.2-1.7-.6-.5-.6-.7-1.2-.7-2 0-.6.3-1.2.7-1.7s1-.7 1.7-.7 1.2.3 1.7.7c.4.5.6 1 .6 1.7zm-1 0c0-.4-.2-.7-.4-1-.3-.4-.6-.6-1-.6-.5 0-.8.2-1 .6-.2.3-.3.6-.3 1 0 .5 0 1 .3 1.2.2.4.5.6 1 .6.3 0 .7-.2 1-.6l.2-1zM82.3 13.4h-1V13c-.3.3-.8.5-1.4.5-.5 0-1 0-1.2-.4-.2 0-.3-.5-.3-.8 0-.6.2-1 .7-1.4.5-.3 1-.4 2-.4 0-.7-.3-1-1-1-.4 0-.8 0-1.2.3l-.2-.7c.4-.2 1-.4 1.6-.4 1.2 0 2 .7 2 2v2.7zm-1-1.6V11c-1.2 0-1.8.4-1.8 1 0 .3 0 .5.2.6l.5.2c.3 0 .5 0 .7-.2l.2-.6v-.2zM88.3 13.4h-1v-.7c-.3.6-.8.8-1.5.8-.6 0-1-.2-1.5-.6s-.5-1.2-.5-2c0-.6.2-1.2.6-1.7.4-.5 1-.7 1.5-.7s1 .2 1.2.7V6.6h1v6.8zm-1-2v-.7-.4l-.5-.6c-.2-.2-.4-.3-.7-.3-.3 0-.6.2-.8.5-.3.2-.4.6-.4 1 0 .6 0 1 .4 1.2.2.3.5.5 1 .5.2 0 .5 0 .7-.4l.2-1zM97.2 11c0 .8-.2 1.4-.6 1.8-.4.5-1 .7-1.7.7-.8 0-1.3-.2-1.8-.6-.4-.6-.6-1.2-.6-2 0-.6.2-1.2.7-1.7s1-.7 1.7-.7 1.2.3 1.6.7c.4.5.6 1 .6 1.7zm-1 0c0-.4 0-.7-.3-1-.3-.4-.7-.6-1-.6-.5 0-.8.2-1 .6-.2.3-.3.6-.3 1 0 .5 0 1 .3 1.2.2.4.5.6 1 .6.3 0 .6-.2 1-.6l.2-1zM103 13.4h-1.2v-2.7c0-.8-.3-1.2-1-1.2-.2 0-.5 0-.7.3s-.2.5-.2.8v2.8h-1V10 8.8h1v.8c0-.3.3-.5.5-.6.3-.3.6-.4 1-.4s.7.2 1 .4c.4.4.6 1 .6 1.6v2.8zM110 9.5h-1.2v2.3c0 .6.2 1 .6 1 .2 0 .3 0 .5-.2v.8h-1c-.3 0-.7 0-1-.2L108 12V9.4h-.7v-.8h.8V8l1-.5v1.2h1v.8zM115.5 13.4h-1v-2.6c0-1-.4-1.3-1-1.3-.5 0-.8.2-1 .7V13.4h-1V6.6h1v2.8c.3-.5.8-.8 1.4-.8.3 0 .7.2 1 .4.3.4.5 1 .5 1.6v2.8zM121.2 11v.3H118c0 .5.2.8.5 1 .2.3.6.4 1 .4.5 0 1 0 1.3-.2v.7c-.3.2-.8.3-1.4.3-.8 0-1.3-.2-1.8-.6-.4-.6-.6-1-.6-2 0-.6.2-1.2.6-1.6.4-.5 1-.8 1.6-.8.7 0 1.2.3 1.6.8.3.4.4 1 .4 1.5zm-1-.4c0-.3 0-.6-.2-.8-.2-.3-.5-.5-.8-.5-.4 0-.7.2-1 .5 0 .2 0 .5-.2.8h2.2z"/></g></svg>